<svg width="16" height="16" viewBox="0 0 16 16" fill="none" xmlns="http://www.w3.org/2000/svg">
<rect width="16" height="16" rx="2" fill="#EEEAE5"/>
<path d="M3.73328 14.2394V13.0738H5.95053V7.02297H7.32855V14.2394H3.73328Z" fill="black"/>
<path d="M8.68066 12.0843H10.0587C10.1139 12.5091 10.2763 12.8131 10.5456 12.9961C10.815 13.1757 11.1621 13.2655 11.5869 13.2655C11.991 13.2655 12.3312 13.1826 12.6075 13.0168C12.8838 12.8476 13.0219 12.6041 13.0219 12.2864C13.0219 12.0308 12.9425 11.827 12.7836 11.6751C12.6248 11.5231 12.3813 11.4057 12.0532 11.3228L10.6441 10.9498C10.05 10.7944 9.6097 10.5405 9.32304 10.1883C9.03639 9.83253 8.89306 9.39046 8.89306 8.86205C8.89306 8.57194 8.95523 8.30428 9.07956 8.05907C9.20389 7.81386 9.3783 7.60319 9.60279 7.42705C9.83073 7.25091 10.107 7.11449 10.4317 7.01779C10.7563 6.91763 11.1207 6.86755 11.5248 6.86755C11.8908 6.86755 12.231 6.91072 12.5453 6.99707C12.8631 7.07995 13.1376 7.20947 13.369 7.3856C13.6039 7.56174 13.7956 7.78796 13.9441 8.06425C14.0926 8.34054 14.1841 8.66519 14.2186 9.03819H12.8406C12.8199 8.84133 12.7681 8.67555 12.6852 8.54086C12.6058 8.40616 12.5056 8.2991 12.3847 8.21967C12.2638 8.13678 12.1274 8.07979 11.9755 8.04871C11.8235 8.01763 11.6664 8.00209 11.504 8.00209C11.1207 8.00209 10.8185 8.07807 10.5974 8.23003C10.3799 8.38199 10.2711 8.58921 10.2711 8.85169C10.2711 9.12798 10.3557 9.33866 10.5249 9.48371C10.6976 9.62531 10.9566 9.74274 11.302 9.83599L12.5298 10.1572C13.1445 10.3195 13.6091 10.5647 13.9233 10.8928C14.2411 11.2209 14.3999 11.682 14.3999 12.276C14.3999 12.6076 14.3326 12.9046 14.1979 13.1671C14.0632 13.4295 13.8715 13.6523 13.6229 13.8353C13.3777 14.0184 13.0824 14.1583 12.737 14.255C12.3951 14.3517 12.0186 14.4 11.6076 14.4C11.2036 14.4 10.8306 14.3568 10.4887 14.2705C10.1467 14.1876 9.84628 14.0546 9.58725 13.8716C9.32823 13.6851 9.11928 13.4451 8.96041 13.1515C8.80154 12.8579 8.70829 12.5022 8.68066 12.0843Z" fill="black"/>
</svg>
