<svg width="16" height="16" viewBox="0 0 16 16" fill="none" xmlns="http://www.w3.org/2000/svg">
<rect width="16" height="16" rx="2" fill="#EEEAE5"/>
<path d="M3.73334 14.2394V13.0738H5.95059V7.02297H7.32861V14.2394H3.73334Z" fill="black"/>
<path d="M8.68072 12.0843H10.0587C10.114 12.5091 10.2763 12.8131 10.5457 12.9961C10.8151 13.1757 11.1622 13.2655 11.587 13.2655C11.9911 13.2655 12.3313 13.1826 12.6075 13.0168C12.8838 12.8476 13.022 12.6041 13.022 12.2864C13.022 12.0308 12.9426 11.827 12.7837 11.6751C12.6248 11.5231 12.3813 11.4057 12.0532 11.3228L10.6441 10.9498C10.0501 10.7944 9.60976 10.5405 9.32311 10.1883C9.03645 9.83253 8.89312 9.39046 8.89312 8.86205C8.89312 8.57194 8.95529 8.30428 9.07962 8.05907C9.20395 7.81386 9.37836 7.60319 9.60285 7.42705C9.8308 7.25091 10.1071 7.11449 10.4317 7.01779C10.7564 6.91763 11.1207 6.86755 11.5248 6.86755C11.8909 6.86755 12.2311 6.91072 12.5454 6.99707C12.8631 7.07995 13.1377 7.20947 13.3691 7.3856C13.6039 7.56174 13.7956 7.78796 13.9441 8.06425C14.0926 8.34054 14.1841 8.66519 14.2187 9.03819H12.8407C12.8199 8.84133 12.7681 8.67555 12.6853 8.54086C12.6058 8.40616 12.5057 8.2991 12.3848 8.21967C12.2639 8.13678 12.1275 8.07979 11.9755 8.04871C11.8236 8.01763 11.6664 8.00209 11.5041 8.00209C11.1207 8.00209 10.8185 8.07807 10.5975 8.23003C10.3799 8.38199 10.2711 8.58921 10.2711 8.85169C10.2711 9.12798 10.3558 9.33866 10.525 9.48371C10.6977 9.62531 10.9567 9.74274 11.3021 9.83599L12.5298 10.1572C13.1446 10.3195 13.6091 10.5647 13.9234 10.8928C14.2411 11.2209 14.4 11.682 14.4 12.276C14.4 12.6076 14.3327 12.9046 14.198 13.1671C14.0633 13.4295 13.8716 13.6523 13.6229 13.8353C13.3777 14.0184 13.0824 14.1583 12.7371 14.255C12.3951 14.3517 12.0187 14.4 11.6077 14.4C11.2036 14.4 10.8306 14.3568 10.4887 14.2705C10.1468 14.1876 9.84634 14.0546 9.58731 13.8716C9.32829 13.6851 9.11934 13.4451 8.96047 13.1515C8.8016 12.8579 8.70835 12.5022 8.68072 12.0843Z" fill="black"/>
</svg>
