<svg width="16" height="16" viewBox="0 0 16 16" fill="none" xmlns="http://www.w3.org/2000/svg">
<rect width="16" height="16" rx="2" fill="#F5EDDB"/>
<path d="M3.94238 14.5072V13.3353H6.17155V7.25195H7.55697V14.5072H3.94238Z" fill="black"/>
<path d="M8.91634 12.3405H10.3018C10.3573 12.7676 10.5205 13.0731 10.7913 13.2572C11.0622 13.4377 11.4111 13.528 11.8382 13.528C12.2445 13.528 12.5865 13.4447 12.8643 13.278C13.142 13.1079 13.2809 12.8631 13.2809 12.5436C13.2809 12.2867 13.2011 12.0818 13.0413 11.929C12.8816 11.7763 12.6368 11.6582 12.307 11.5749L10.8903 11.1999C10.2931 11.0436 9.85037 10.7884 9.56217 10.4342C9.27398 10.0766 9.12988 9.63216 9.12988 9.10091C9.12988 8.80924 9.19238 8.54015 9.31738 8.29362C9.44238 8.04709 9.61773 7.83529 9.84342 7.6582C10.0726 7.48112 10.3504 7.34397 10.6768 7.24674C11.0031 7.14605 11.3695 7.0957 11.7757 7.0957C12.1438 7.0957 12.4858 7.13911 12.8018 7.22591C13.1212 7.30924 13.3972 7.43945 13.6299 7.61654C13.866 7.79362 14.0587 8.02105 14.208 8.29883C14.3573 8.57661 14.4493 8.90299 14.484 9.27799H13.0986C13.0778 9.08008 13.0257 8.91341 12.9424 8.77799C12.8625 8.64258 12.7618 8.53494 12.6403 8.45508C12.5188 8.37174 12.3816 8.31445 12.2288 8.2832C12.0761 8.25195 11.9181 8.23633 11.7549 8.23633C11.3695 8.23633 11.0656 8.31272 10.8434 8.46549C10.6247 8.61827 10.5153 8.82661 10.5153 9.09049C10.5153 9.36827 10.6004 9.58008 10.7705 9.72591C10.9441 9.86827 11.2045 9.98633 11.5518 10.0801L12.7861 10.403C13.4042 10.5662 13.8712 10.8127 14.1872 11.1426C14.5066 11.4724 14.6663 11.936 14.6663 12.5332C14.6663 12.8665 14.5986 13.1651 14.4632 13.429C14.3278 13.6929 14.1351 13.9169 13.8851 14.1009C13.6386 14.2849 13.3417 14.4256 12.9945 14.5228C12.6507 14.62 12.2722 14.6686 11.859 14.6686C11.4528 14.6686 11.0778 14.6252 10.734 14.5384C10.3903 14.4551 10.0882 14.3214 9.8278 14.1374C9.56738 13.9499 9.35731 13.7085 9.19759 13.4134C9.03787 13.1183 8.94412 12.7606 8.91634 12.3405Z" fill="black"/>
</svg>
