<svg width="16" height="16" viewBox="0 0 16 16" fill="none" xmlns="http://www.w3.org/2000/svg">
<rect width="16" height="16" rx="2" fill="#EEEAE5"/>
<path d="M3.67578 14.2396V13.0677H5.90495V6.98438H7.29036V14.2396H3.67578Z" fill="black"/>
<path d="M8.64974 12.0729H10.0352C10.0907 12.5 10.2539 12.8056 10.5247 12.9896C10.7956 13.1701 11.1445 13.2604 11.5716 13.2604C11.9779 13.2604 12.3199 13.1771 12.5977 13.0104C12.8754 12.8403 13.0143 12.5955 13.0143 12.276C13.0143 12.0191 12.9345 11.8142 12.7747 11.6615C12.615 11.5087 12.3702 11.3906 12.0404 11.3073L10.6237 10.9323C10.0265 10.776 9.58377 10.5208 9.29557 10.1667C9.00738 9.80903 8.86328 9.36458 8.86328 8.83333C8.86328 8.54167 8.92578 8.27257 9.05078 8.02604C9.17578 7.77951 9.35113 7.56771 9.57682 7.39063C9.80599 7.21354 10.0838 7.07639 10.4102 6.97917C10.7365 6.87847 11.1029 6.82812 11.5091 6.82812C11.8772 6.82812 12.2192 6.87153 12.5352 6.95833C12.8546 7.04167 13.1306 7.17188 13.3633 7.34896C13.5994 7.52604 13.7921 7.75347 13.9414 8.03125C14.0907 8.30903 14.1827 8.63542 14.2174 9.01042H12.832C12.8112 8.8125 12.7591 8.64583 12.6758 8.51042C12.5959 8.375 12.4952 8.26736 12.3737 8.1875C12.2522 8.10417 12.115 8.04688 11.9622 8.01563C11.8095 7.98438 11.6515 7.96875 11.4883 7.96875C11.1029 7.96875 10.799 8.04514 10.5768 8.19792C10.3581 8.35069 10.2487 8.55903 10.2487 8.82292C10.2487 9.10069 10.3338 9.3125 10.5039 9.45833C10.6775 9.60069 10.9379 9.71875 11.2852 9.8125L12.5195 10.1354C13.1376 10.2986 13.6046 10.5451 13.9206 10.875C14.24 11.2049 14.3997 11.6684 14.3997 12.2656C14.3997 12.599 14.332 12.8976 14.1966 13.1615C14.0612 13.4253 13.8685 13.6493 13.6185 13.8333C13.372 14.0174 13.0751 14.158 12.7279 14.2552C12.3841 14.3524 12.0056 14.401 11.5924 14.401C11.1862 14.401 10.8112 14.3576 10.4674 14.2708C10.1237 14.1875 9.82161 14.0538 9.5612 13.8698C9.30078 13.6823 9.09071 13.441 8.93099 13.1458C8.77127 12.8507 8.67752 12.4931 8.64974 12.0729Z" fill="black"/>
</svg>
