<svg width="180" height="180" viewBox="0 0 180 180" fill="none" xmlns="http://www.w3.org/2000/svg">
<rect width="180" height="180" rx="16" fill="#EEEAE5"/>
<path d="M42 160.193V147.08H66.9441V79.0084H82.4468V160.193H42Z" fill="black"/>
<path d="M97.6581 135.949H113.161C113.782 140.728 115.609 144.147 118.639 146.206C121.67 148.227 125.575 149.237 130.354 149.237C134.899 149.237 138.727 148.304 141.835 146.439C144.943 144.535 146.497 141.796 146.497 138.222C146.497 135.346 145.604 133.054 143.816 131.345C142.029 129.635 139.29 128.314 135.599 127.381L119.746 123.185C113.064 121.437 108.11 118.581 104.885 114.618C101.66 110.616 100.048 105.643 100.048 99.6981C100.048 96.4344 100.747 93.4232 102.146 90.6646C103.544 87.906 105.507 85.5359 108.032 83.5543C110.596 81.5728 113.705 80.0381 117.357 78.9502C121.009 77.8234 125.108 77.26 129.654 77.26C133.773 77.26 137.6 77.7457 141.136 78.717C144.71 79.6495 147.799 81.1065 150.402 83.0881C153.044 85.0696 155.201 87.6146 156.871 90.7229C158.542 93.8312 159.572 97.4834 159.96 101.68H144.458C144.224 99.465 143.642 97.6 142.709 96.0847C141.815 94.5694 140.689 93.3649 139.329 92.4713C137.969 91.5388 136.434 90.8977 134.725 90.548C133.015 90.1983 131.247 90.0235 129.421 90.0235C125.108 90.0235 121.709 90.8783 119.222 92.5878C116.774 94.2974 115.55 96.6286 115.55 99.5815C115.55 102.69 116.502 105.06 118.406 106.692C120.349 108.285 123.263 109.606 127.148 110.655L140.961 114.268C147.877 116.094 153.102 118.853 156.638 122.544C160.213 126.235 162 131.422 162 138.105C162 141.835 161.242 145.176 159.727 148.129C158.212 151.082 156.055 153.588 153.258 155.648C150.499 157.707 147.177 159.28 143.292 160.368C139.445 161.456 135.21 162 130.587 162C126.041 162 121.845 161.515 117.998 160.543C114.152 159.611 110.771 158.115 107.857 156.056C104.943 153.957 102.593 151.257 100.805 147.955C99.018 144.652 97.9689 140.65 97.6581 135.949Z" fill="black"/>
</svg>
