<svg width="180" height="180" viewBox="0 0 180 180" fill="none" xmlns="http://www.w3.org/2000/svg">
<rect width="180" height="180" rx="16" fill="#EEEAE5"/>
<path d="M41.3477 160.199V147.016H66.4258V78.5781H82.0117V160.199H41.3477Z" fill="black"/>
<path d="M97.3047 135.824H112.891C113.516 140.629 115.352 144.066 118.398 146.137C121.445 148.168 125.371 149.184 130.176 149.184C134.746 149.184 138.594 148.246 141.719 146.371C144.844 144.457 146.406 141.703 146.406 138.109C146.406 135.219 145.508 132.914 143.711 131.195C141.914 129.477 139.16 128.148 135.449 127.211L119.512 122.992C112.793 121.234 107.812 118.363 104.57 114.379C101.328 110.355 99.707 105.355 99.707 99.3789C99.707 96.0977 100.41 93.0703 101.816 90.2969C103.223 87.5234 105.195 85.1406 107.734 83.1484C110.312 81.1562 113.438 79.6133 117.109 78.5195C120.781 77.3867 124.902 76.8203 129.473 76.8203C133.613 76.8203 137.461 77.3086 141.016 78.2852C144.609 79.2227 147.715 80.6875 150.332 82.6797C152.988 84.6719 155.156 87.2305 156.836 90.3555C158.516 93.4805 159.551 97.1523 159.941 101.371H144.355C144.121 99.1445 143.535 97.2695 142.598 95.7461C141.699 94.2227 140.566 93.0117 139.199 92.1133C137.832 91.1758 136.289 90.5312 134.57 90.1797C132.852 89.8281 131.074 89.6523 129.238 89.6523C124.902 89.6523 121.484 90.5117 118.984 92.2305C116.523 93.9492 115.293 96.293 115.293 99.2617C115.293 102.387 116.25 104.77 118.164 106.41C120.117 108.012 123.047 109.34 126.953 110.395L140.84 114.027C147.793 115.863 153.047 118.637 156.602 122.348C160.195 126.059 161.992 131.273 161.992 137.992C161.992 141.742 161.23 145.102 159.707 148.07C158.184 151.039 156.016 153.559 153.203 155.629C150.43 157.699 147.09 159.281 143.184 160.375C139.316 161.469 135.059 162.016 130.41 162.016C125.84 162.016 121.621 161.527 117.754 160.551C113.887 159.613 110.488 158.109 107.559 156.039C104.629 153.93 102.266 151.215 100.469 147.895C98.6719 144.574 97.6172 140.551 97.3047 135.824Z" fill="black"/>
</svg>
