<svg width="128" height="128" viewBox="0 0 128 128" fill="none" xmlns="http://www.w3.org/2000/svg">
<path d="M0 25.6C0 16.6392 0 12.1587 1.7439 8.73615C3.27787 5.72556 5.72556 3.27787 8.73615 1.7439C12.1587 0 16.6392 0 25.6 0H102.4C111.361 0 115.841 0 119.264 1.7439C122.274 3.27787 124.722 5.72556 126.256 8.73615C128 12.1587 128 16.6392 128 25.6V102.4C128 111.361 128 115.841 126.256 119.264C124.722 122.274 122.274 124.722 119.264 126.256C115.841 128 111.361 128 102.4 128H25.6C16.6392 128 12.1587 128 8.73615 126.256C5.72556 124.722 3.27787 122.274 1.7439 119.264C0 115.841 0 111.361 0 102.4V25.6Z" fill="#EEEAE5"/>
<path d="M29.8666 113.915V104.59H47.6047V56.1838H58.6288V113.915H29.8666Z" fill="black"/>
<path d="M69.4457 96.6746H80.4698C80.9119 100.073 82.2105 102.504 84.3656 103.969C86.5207 105.406 89.2974 106.124 92.6958 106.124C95.9285 106.124 98.65 105.461 100.86 104.135C103.071 102.781 104.176 100.833 104.176 98.2909C104.176 96.2464 103.54 94.6162 102.269 93.4005C100.998 92.1848 99.0506 91.2454 96.4258 90.5823L85.153 87.5984C80.4008 86.355 76.878 84.3243 74.5848 81.5061C72.2915 78.6603 71.1449 75.1237 71.1449 70.8964C71.1449 68.5755 71.6423 66.4343 72.6369 64.4726C73.6316 62.5109 75.0269 60.8255 76.8228 59.4164C78.6463 58.0073 80.8567 56.9159 83.4538 56.1423C86.051 55.3411 88.9659 54.9404 92.1985 54.9404C95.1272 54.9404 97.8487 55.2858 100.363 55.9765C102.905 56.6397 105.101 57.6758 106.953 59.0849C108.831 60.494 110.365 62.3037 111.553 64.514C112.741 66.7244 113.473 69.3215 113.749 72.3055H102.725C102.56 70.7306 102.145 69.4044 101.482 68.3269C100.847 67.2493 100.045 66.3928 99.0782 65.7573C98.1112 65.0942 97.0198 64.6384 95.8042 64.3897C94.5885 64.141 93.3313 64.0167 92.0327 64.0167C88.9659 64.0167 86.5483 64.6245 84.78 65.8402C83.0394 67.0559 82.1691 68.7137 82.1691 70.8135C82.1691 73.0239 82.846 74.7093 84.1998 75.8697C85.5813 77.0025 87.6535 77.9419 90.4164 78.6879L100.239 81.2574C105.157 82.556 108.873 84.5177 111.387 87.1425C113.929 89.7673 115.2 93.4558 115.2 98.2081C115.2 100.86 114.661 103.237 113.584 105.336C112.506 107.436 110.973 109.218 108.983 110.683C107.022 112.147 104.659 113.266 101.896 114.04C99.1611 114.813 96.1495 115.2 92.8616 115.2C89.629 115.2 86.645 114.855 83.9097 114.164C81.1744 113.501 78.7706 112.437 76.6984 110.973C74.6262 109.481 72.9547 107.561 71.6837 105.212C70.4128 102.864 69.6668 100.018 69.4457 96.6746Z" fill="black"/>
</svg>
