<svg width="32" height="32" viewBox="0 0 32 32" xmlns="http://www.w3.org/2000/svg">
<path d="M9.6051 16.6812L9 19.495C10.5234 19.4735 11.9992 20.0279 13.1349 21.0483C14.1791 22.1023 14.948 23.5138 15 25H17C17.052 23.5138 17.8149 22.1023 18.8591 21.0483C19.9961 20.0261 21.4744 19.4712 23 19.494L22.3949 16.6802C21.5929 16.7636 20.8151 17.0046 20.1056 17.3895C19.3982 17.7626 18.7629 18.2598 18.2298 18.8577C17.7408 19.3912 17.2171 20.0273 17 20.719V7H15V20.719C14.7829 20.0273 14.2612 19.3922 13.7722 18.8587C13.2391 18.2608 12.6038 17.7636 11.8964 17.3905C11.1863 17.0054 10.4078 16.7644 9.6051 16.6812Z" />
</svg>
