<svg width="32" height="32" viewBox="0 0 32 32" fill="none" xmlns="http://www.w3.org/2000/svg">
<path d="M22.3949 15.3188L23 12.505C21.4766 12.5265 20.0008 11.9721 18.8651 10.9517C17.8209 9.89771 17.052 8.48619 17 7H15C14.948 8.48619 14.1851 9.89771 13.1409 10.9517C12.0039 11.9739 10.5256 12.5288 9 12.506L9.6051 15.3198C10.4071 15.2364 11.1849 14.9954 11.8944 14.6105C12.6018 14.2374 13.2371 13.7402 13.7702 13.1423C14.2592 12.6088 14.7829 11.9727 15 11.281V25H17V11.281C17.2171 11.9727 17.7388 12.6078 18.2278 13.1413C18.7609 13.7392 19.3962 14.2364 20.1036 14.6095C20.8137 14.9946 21.5922 15.2356 22.3949 15.3188Z" fill="black"/>
</svg>
