<svg viewBox="0 0 1024 1024" xmlns="http://www.w3.org/2000/svg"><path d="M507.688 543.758L96 479.782V271.734L511.688 31.742l415.688 239.992V479.78l-419.688 63.978z m0 63.976l419.688-63.946v207.946L511.688 991.758 96 751.734V543.79l411.688 63.944z" fill="#F45949" /><path d="M512 511.75l262.968-72.016 152.408 88-415.688 240.024L96 527.734l152.422-88L512 511.75z" fill="#761B11" /><path d="M511.39 767.758v223.828L96 751.734V527.906l415.39 239.852z" fill="#C0392B" /><path d="M512 767.758l415.376-239.852v223.828L512 991.586V767.758z" fill="#95271B" /><path d="M96 271.734L511.688 31.742l415.688 239.992-415.688 240.016L96 271.734z" fill="#E74C3C" /><path d="M511.39 511.75v223.828L96 495.734V271.898l415.39 239.852z" fill="#C0392B" /><path d="M512 511.75l415.376-239.852v223.836L512 735.578V511.75z" fill="#95271B" /><path d="M511.688 191.734c-44.188 0-79.984-17.914-79.984-39.976 0-22.094 35.796-40.016 79.984-40.016s80 17.922 80 40.016c0 22.062-35.812 39.976-80 39.976z m0 224c-44.188 0-79.984-17.914-79.984-39.976 0-22.094 35.796-40.016 79.984-40.016s80 17.922 80 40.016c0 22.062-35.812 39.976-80 39.976z m192-112c-44.188 0-80-17.914-80-39.976 0-22.094 35.812-40.016 80-40.016s80 17.922 80 40.016c0 22.062-35.812 39.976-80 39.976z m-383.984 0c-44.188 0-80-17.914-80-39.976 0-22.094 35.812-40.016 80-40.016s79.984 17.922 79.984 40.016c0 22.062-35.798 39.976-79.984 39.976z m191.984-159.992c-44.188 0-79.984-17.914-79.984-40.008s35.796-39.984 79.984-39.984 80 17.89 80 39.984-35.812 40.008-80 40.008z m0 224.008c-44.188 0-79.984-17.922-79.984-40.016s35.796-39.984 79.984-39.984 80 17.89 80 39.984-35.812 40.016-80 40.016z m192-112.008c-44.188 0-80-17.914-80-40.008 0-22.102 35.812-39.984 80-39.984s80 17.882 80 39.984c0 22.094-35.812 40.008-80 40.008z m-383.984 0c-44.188 0-80-17.914-80-40.008 0-22.102 35.812-39.984 80-39.984s79.984 17.882 79.984 39.984c0 22.094-35.798 40.008-79.984 40.008z m-80 8.016v-48.024h159.984v48.024h-159.984z m192-112V103.734h159.984v48.024h-159.984z m0 224v-48.024h159.984v48.024h-159.984z m191.984-112v-48.024h160v48.024h-160z" fill="#C0392B" /><path d="M511.688 143.742c-44.188 0-79.984-17.914-79.984-40.008s35.796-39.984 79.984-39.984 80 17.89 80 39.984-35.812 40.008-80 40.008z m0 224.008c-44.188 0-79.984-17.922-79.984-40.016s35.796-39.984 79.984-39.984 80 17.89 80 39.984-35.812 40.016-80 40.016z m192-112.008c-44.188 0-80-17.914-80-40.008 0-22.102 35.812-39.984 80-39.984s80 17.882 80 39.984c0 22.094-35.812 40.008-80 40.008z m-383.984 0c-44.188 0-80-17.914-80-40.008 0-22.102 35.812-39.984 80-39.984s79.984 17.882 79.984 39.984c0 22.094-35.798 40.008-79.984 40.008z" fill="#F45949" /></svg>
