<svg aria-label="Joonas Sandell illustrative profile picture"  viewBox="0 0 128 128" fill="none" xmlns="http://www.w3.org/2000/svg">
<g clip-path="url(#clip0_5_625)">
<path d="M128 0H0V128H128V0Z" fill="#F3F3F3"/>
<path d="M45.0692 92.1918L37.3185 99.8876C40.9589 109.454 46.5667 116.041 52.5571 118.682C60.0449 121.984 68.8961 124.693 81.5103 123.084C94.1244 121.476 95.4789 112.417 93.7857 106.152C92.4312 101.141 89.1012 98.5331 87.6056 97.8558L83.805 96.7553L82.6108 90.0672C82.5826 88.9667 82.7819 86.6132 83.805 86.0036C85.0839 85.2417 95.4789 84.0564 96.0715 80.3331C96.6642 76.6097 94.8723 73.3895 94.8723 70.9345C94.8723 68.9704 95.6717 67.2906 96.0715 66.6961L95.4789 64.2465V59.5902C96.4948 59.4208 98.3573 58.5404 97.6801 56.3732C97.0028 54.2058 93.945 50.758 92.5008 49.3049L94.8723 43.1784C94.3452 41.4656 92.896 37.4471 91.3149 35.0755C89.734 32.704 85.6495 26.3139 83.805 23.4153V15.9055L64.2395 17.8807L48.8245 39.8185L31.4327 56.8138L38.745 66.6961L45.0692 80.3331V92.1918Z" fill="white"/>
<path d="M42.2213 67.927C45.8857 73.416 44.6518 76.7879 44.6518 80.8919L39.6106 75.7598C36.9998 72.8191 31.004 65.6053 27.9071 60.2759C24.0361 53.6142 21.9662 43.0815 22.0562 41.7311C22.1283 40.6508 23.9464 39.0613 24.8463 38.4017C25.1464 36.3907 25.9628 31.8467 26.8271 29.7581C27.6912 27.6696 32.4084 21.9265 34.659 19.3162C36.1594 17.8755 40.6006 14.6342 46.362 13.1936C52.1234 11.7531 57.5249 12.0534 59.5053 12.3837C62.9262 11.0638 70.074 8.33402 71.2984 7.97392C72.8287 7.5238 83.1813 7.88226 86.6022 13.1936C89.339 17.4427 88.3727 21.4292 87.2324 23.1395L84.4417 25.0768C83.5415 24.5966 80.6195 24.6487 79.035 23.7845C77.4506 22.9202 76.9998 21.1762 76.6097 21.0264C76.6997 19.2259 75.8895 18.596 74.2691 19.3162C72.6487 20.0363 70.5782 23.3662 68.6878 25.0768C67.1754 26.4451 63.1363 29.0679 61.3059 30.2083C61.726 31.0787 62.5661 33.0354 62.5661 33.8995V38.4017C60.8257 39.9915 57.1288 43.6032 56.2645 45.3316C55.4004 47.06 55.9044 53.3737 56.2645 56.3144L53.9025 56.6097C52.7245 56.7569 51.6086 56.1216 50.8012 55.2513C48.8988 53.2009 46.065 52.2371 44.6518 51.9933C44.6518 51.7235 44.1657 51.1656 42.2213 51.0936C39.7909 51.0036 34.9292 52.7142 35.9195 58.8358C36.7117 63.733 40.4508 66.937 42.2213 67.927Z" fill="#CCCCCC"/>
<path d="M93.541 65.1021L95.0778 64.3278L95.7885 66.97L95.0778 69.2092C93.5452 69.9583 92.1329 70.7337 89.3612 70.1837C88.0294 69.9196 85.9232 69.9405 84.6366 69.9588C84.1692 69.9655 83.8733 69.5351 84.1219 69.1392C84.8246 68.0202 86.2105 66.4839 87.1863 66.0035C88.4427 65.385 90.6213 64.8176 91.5534 64.5292L93.541 65.1021Z" fill="#FED1D0"/>
<path d="M84.1254 24.6027C84.9388 25.6284 86.9683 28.2735 88.5802 30.6489C90.5951 33.6182 93.0346 39.7699 93.565 40.7243C93.8632 41.2614 94.2839 42.0045 94.6056 42.5705C94.8191 42.9458 94.8525 43.3977 94.6871 43.7966C93.9978 45.4589 92.7927 48.1041 91.9739 48.9973M90.7564 47.8559C92.0846 49.349 95.0922 52.7118 95.8693 53.4717C96.8406 54.4216 99.8176 58.1881 95.9988 59.3195C95.8758 59.3559 95.7693 59.4278 95.6574 59.4787M95.6574 59.4787C92.7616 60.797 91.1947 60.4348 89.4489 60.4348M95.6574 59.4787C95.6256 60.4924 95.5003 63.0012 95.2529 64.3988C95.5225 65.156 95.9809 66.871 95.6574 67.6747C95.2529 68.6792 94.9437 70.0332 94.9437 72.0425C94.9437 74.0517 96.7784 76.1919 96.3885 79.2493C95.9988 82.3067 94.9162 83.3987 90.9134 84.1412C86.9104 84.8838 84.3771 85.2332 83.1105 86.8493C81.8439 88.4653 82.8487 90.2997 83.1105 92.0469C83.32 93.4445 83.7219 98.3074 83.8969 100.564" stroke="black" stroke-width="2.13333" stroke-linecap="round" stroke-linejoin="round"/>
<path d="M46.9714 54.663C45.7941 52.2435 42.3209 48.6406 37.8466 53.5851C32.2537 59.7656 42.9487 71.4429 51.3869 69.8729" stroke="black" stroke-width="2.13333" stroke-linecap="round" stroke-linejoin="round"/>
<path d="M43.959 58.7639L46.2255 63.5396" stroke="black" stroke-width="2.13333" stroke-linecap="round" stroke-linejoin="round"/>
<path d="M42.6638 61.3555H47.1168" stroke="black" stroke-width="2.13333" stroke-linecap="round" stroke-linejoin="round"/>
<path d="M127.879 128C126.6 121.615 124.792 113.381 123.713 111.095C122.313 108.13 115.869 106.228 109.035 104.211C107.391 103.725 105.724 103.233 104.1 102.718C101.431 101.872 98.7 100.871 96.1216 99.9251C90.6073 97.9029 85.7907 96.1365 83.7721 96.6926C86.1898 96.7945 91.0633 98.8496 93.3512 105.796C96.2112 114.479 91.2896 120.832 81.2788 123.284C71.2682 125.735 51.379 120.759 44.7394 112.587C39.6093 106.273 37.9835 101.267 37.3567 99.3367C37.3345 99.2684 37.3136 99.2038 37.2938 99.1433C34.2976 100.914 27.6512 104.823 25.0362 106.294C24.352 106.679 23.3367 107.22 22.112 107.873C17.4852 110.341 9.86999 114.402 5.83151 117.632C3.78669 119.268 2.76519 123.445 2.31891 128H127.879Z" fill="black" stroke="black" stroke-width="2.13333" stroke-linecap="round" stroke-linejoin="round"/>
<path d="M37.7034 99.2461L43.8822 93.3885C44.732 92.5828 45.2134 91.4631 45.2134 90.292V80.2378M45.2134 80.2378C41.4337 76.5946 32.4117 68.4989 29.2247 62.7786C25.2409 55.6281 22.2783 45.4124 22.1761 42.8587C22.074 40.3049 24.4235 39.6917 25.0365 38.0572C25.6494 36.4228 25.0365 36.118 26.4666 31.2148C27.8967 26.3117 35.7622 17.7301 41.2783 14.5635C45.6912 12.0302 55.8517 11.9412 60.3803 12.2134M45.2134 80.2378C44.6343 77.1927 43.915 74.6748 43.915 71.833M46.7944 17.1169C50.7782 15.7549 59.6449 12.6427 63.2405 11.0901C67.735 9.14921 71.6169 6.59761 78.7672 8.84383C85.9177 11.0901 90.668 17.9681 84.6778 25.063" stroke="black" stroke-width="2.13333" stroke-linecap="round" stroke-linejoin="round"/>
<path d="M84.1813 42.3491C82.5126 42.1443 78.7581 42.0703 76.797 42.5616C76.797 42.5616 72.8027 44.2756 71.0049 45.6648" stroke="black" stroke-width="2.13333" stroke-linecap="round" stroke-linejoin="round"/>
<path d="M91.0875 42.6954C91.8292 42.7015 93.7663 42.666 94.5434 43.0935" stroke="black" stroke-width="2.13333" stroke-linecap="round" stroke-linejoin="round"/>
<path d="M80.5842 50.3049C81.4587 50.1395 81.9656 48.9374 81.7164 47.6199C81.4673 46.3024 80.5564 45.3685 79.682 45.5338C78.8075 45.6992 78.3006 46.9013 78.5498 48.2188C78.7989 49.5363 79.7098 50.4703 80.5842 50.3049Z" fill="black"/>
<path d="M79.3374 22.1576C80.0168 21.6672 81.4231 20.2408 81.6126 18.459C81.8497 16.2317 79.9064 12.9616 73.3655 15.7103C66.8245 18.459 59.478 20.9728 55.3543 23.0108C52.0555 24.6414 47.7232 29.4728 45.9695 31.6848" stroke="black" stroke-width="2.13333" stroke-linecap="round" stroke-linejoin="round"/>
<path d="M76.4002 21.4965C76.653 20.8953 76.8363 19.5415 75.5469 18.9353C73.9352 18.1778 70.8069 23.202 68.2475 25.4298C66.1998 27.2119 60.9798 30.0591 58.6257 31.2599" stroke="black" stroke-width="2.13333" stroke-linecap="round" stroke-linejoin="round"/>
<path d="M68.5308 12.3C66.0661 13.9748 60.0843 17.5046 55.8754 18.2252C50.6143 19.1259 38.907 25.3825 34.8782 34.72M35.21 24.8138C33.7407 26.9783 30.6313 32.2933 29.9487 36.2368C29.2662 40.1803 26.5675 43.0938 25.3035 44.0575" stroke="black" stroke-width="2.13333" stroke-linecap="round" stroke-linejoin="round"/>
<path d="M40.424 39.6029C39.1758 42.178 35.8737 47.9542 32.6507 50.457M62.7488 33.4889C62.7488 34.2 62.7488 36.0203 62.7488 37.6125C62.7488 39.6029 57.1557 42.5411 56.3025 46.0012C55.62 48.7693 56.0182 54.2326 56.3025 56.6184" stroke="black" stroke-width="2.13333" stroke-linecap="round" stroke-linejoin="round"/>
<path opacity="0.2" d="M61.5401 81.0594C66.8904 82.7884 80.644 84.4551 86.8521 85.0722C84.3004 85.0722 82.9764 86.856 82.6335 87.748L73.3349 91.7232C72.9452 91.8899 72.6501 92.2216 72.5301 92.6281L68.2341 107.173C67.8521 108.466 66.053 108.551 65.5504 107.3L51.9747 73.504C51.8035 73.0775 52.0165 72.5936 52.4467 72.4321C52.9057 72.2598 53.4106 72.5265 53.5632 72.9924C54.4681 75.7527 56.7279 79.5044 61.5401 81.0594Z" fill="black"/>
<path opacity="0.5" d="M78.6915 58.8496C77.9537 60.3736 75.6093 60.7636 73.4553 59.7208C71.3012 58.6779 70.1534 56.5971 70.8912 55.0729C71.8595 53.0729 73.6365 52.1357 75.7905 53.1785C77.9444 54.2214 79.4294 57.3255 78.6915 58.8496Z" fill="#FED1D0"/>
</g>
<defs>
<clipPath id="clip0_5_625">
<rect width="128" height="128" fill="white"/>
</clipPath>
</defs>
</svg>
