<svg aria-label="Joonas Sandell profile picture" viewBox="0 0 90 90" fill="none" xmlns="http://www.w3.org/2000/svg">
<g>
<rect width="90" height="90" fill="#F3F3F3"/>
<path d="M31.6893 64.8224L26.2396 70.2335C28.7992 76.9599 32.7422 81.591 36.9542 83.4482C42.2191 85.7697 48.4426 87.6745 57.3119 86.5435C66.1812 85.4125 67.1336 79.0433 65.9431 74.6384C64.9907 71.1145 62.6493 69.2811 61.5977 68.8049L58.9254 68.0311L58.0857 63.3285C58.0659 62.5547 58.206 60.8999 58.9254 60.4713C59.8246 59.9356 67.1336 59.1022 67.5503 56.4842C67.967 53.8662 66.7071 51.602 66.7071 49.8758C66.7071 48.4948 67.2692 47.3137 67.5503 46.8957L67.1336 45.1733V41.8994C67.8479 41.7803 69.1575 41.1612 68.6813 39.6374C68.2051 38.1135 66.0551 35.6892 65.0396 34.6675L66.7071 30.3598C66.3365 29.1555 65.3175 26.33 64.2058 24.6625C63.0942 22.995 60.2223 18.502 58.9254 16.4639V11.1836L45.1684 12.5724L34.3297 27.9974L22.1011 39.9472L27.2426 46.8957L31.6893 56.4842V64.8224Z" fill="white"/>
<path d="M29.6869 47.7612C32.2634 51.6206 31.3958 53.9915 31.3958 56.8771L27.8512 53.2686C26.0155 51.2009 21.7997 46.1287 19.6222 42.3815C16.9004 37.6975 15.445 30.2917 15.5083 29.3422C15.559 28.5826 16.8373 27.465 17.4701 27.0012C17.6811 25.5872 18.2551 22.3922 18.8628 20.9237C19.4704 19.4552 22.7872 15.4171 24.3696 13.5817C25.4246 12.5687 28.5473 10.2897 32.5983 9.27677C36.6493 8.26387 40.4472 8.47506 41.8397 8.70727C44.245 7.77923 49.2708 5.85986 50.1317 5.60667C51.2077 5.29018 58.4869 5.54222 60.8922 9.27677C62.8165 12.2644 62.1371 15.0674 61.3353 16.27L59.3731 17.6321C58.7401 17.2945 56.6856 17.3311 55.5715 16.7235C54.4575 16.1158 54.1405 14.8895 53.8662 14.7842C53.9295 13.5182 53.3598 13.0753 52.2205 13.5817C51.0811 14.088 49.6253 16.4294 48.2961 17.6321C47.2327 18.5942 44.3927 20.4384 43.1057 21.2402C43.4011 21.8522 43.9918 23.228 43.9918 23.8356V27.0012C42.7681 28.119 40.1687 30.6585 39.561 31.8738C38.9534 33.0891 39.3078 37.5284 39.561 39.5961L37.9002 39.8037C37.0719 39.9072 36.2873 39.4605 35.7196 38.8486C34.382 37.4069 32.3895 36.7292 31.3958 36.5578C31.3958 36.3681 31.054 35.9758 29.6869 35.9252C27.978 35.8619 24.5596 37.0647 25.2559 41.3689C25.8129 44.8123 28.442 47.0651 29.6869 47.7612Z" fill="#CCCCCC"/>
<path d="M65.771 45.7749L66.8516 45.2305L67.3513 47.0883L66.8516 48.6627C65.774 49.1894 64.781 49.7346 62.8321 49.3479C61.8957 49.1622 60.4148 49.1769 59.5101 49.1898C59.1815 49.1945 58.9734 48.8919 59.1482 48.6135C59.6423 47.8267 60.6168 46.7465 61.3029 46.4087C62.1863 45.9738 63.7181 45.5749 64.3735 45.3721L65.771 45.7749Z" fill="#FED1D0"/>
<path d="M59.1507 17.2988C59.7226 18.02 61.1496 19.8798 62.283 21.55C63.6997 23.6378 65.415 27.9632 65.7879 28.6343C65.9976 29.0119 66.2934 29.5344 66.5196 29.9324C66.6697 30.1963 66.6932 30.514 66.5769 30.7945C66.0922 31.9633 65.2449 33.8232 64.6692 34.4512M63.8131 33.6487C64.747 34.6985 66.8617 37.063 67.4081 37.5973C68.0911 38.2652 70.1843 40.9135 67.4992 41.709C67.4127 41.7346 67.3378 41.7852 67.2591 41.821M62.8938 42.4932C64.1213 42.4932 65.223 42.7479 67.2591 41.821M67.2591 41.821C67.2368 42.5337 67.1487 44.2977 66.9747 45.2804C67.1643 45.8128 67.4866 47.0187 67.2591 47.5838C66.9747 48.2901 66.7573 49.2421 66.7573 50.6549C66.7573 52.0676 68.0473 53.5724 67.7732 55.7222C67.4992 57.8719 66.738 58.6397 63.9235 59.1618C61.1089 59.6839 59.3277 59.9296 58.4371 61.0659C57.5465 62.2022 58.253 63.492 58.4371 64.7205C58.5844 65.7032 58.867 69.1224 58.99 70.7091" stroke="black" stroke-width="1.5" stroke-linecap="round" stroke-linejoin="round"/>
<path d="M33.0268 38.4349C32.199 36.7337 29.7569 34.2004 26.6109 37.677C22.6784 42.0227 30.1983 50.2333 36.1314 49.1294" stroke="black" stroke-width="1.5" stroke-linecap="round" stroke-linejoin="round"/>
<path d="M30.9087 41.3184L32.5023 44.6763" stroke="black" stroke-width="1.5" stroke-linecap="round" stroke-linejoin="round"/>
<path d="M29.998 43.1406H33.129" stroke="black" stroke-width="1.5" stroke-linecap="round" stroke-linejoin="round"/>
<path d="M65.6376 74.3877C64.0289 69.5036 60.6022 68.0586 58.9023 67.987C60.9853 67.4131 67.3056 70.3565 73.1952 72.2239C79.0848 74.0913 85.7644 75.5278 86.9854 78.1135C87.9622 80.182 89.7866 89.1744 90.5766 93.412L1.58644 98.8706C1.22733 94.4415 1.22734 85.0086 4.1003 82.7102C7.6915 79.8373 15.3052 76.0306 17.6036 74.7378C19.4423 73.7035 24.1155 70.955 26.2222 69.7101C26.6293 70.955 27.7225 74.5658 31.4574 79.1625C36.1259 84.9084 50.1105 88.4077 57.1492 86.684C64.188 84.9602 67.6485 80.4928 65.6376 74.3877Z" fill="black" stroke="black" stroke-width="1.5" stroke-linecap="round" stroke-linejoin="round"/>
<path d="M26.5102 69.7824L30.8547 65.6638C31.4522 65.0973 31.7907 64.31 31.7907 63.4866V56.4172M31.7907 56.4172C29.1331 53.8556 22.7895 48.1633 20.5486 44.1412C17.7475 39.1135 15.6644 31.9306 15.5926 30.135C15.5208 28.3394 17.1728 27.9082 17.6038 26.759C18.0347 25.6098 17.6038 25.3955 18.6093 21.9479C19.6149 18.5004 25.1453 12.4665 29.0238 10.24C32.1266 8.45873 39.2707 8.39618 42.4549 8.58756M31.7907 56.4172C31.3835 54.2761 30.8777 52.5057 30.8777 50.5076M32.9023 12.0353C35.7034 11.0777 41.9378 8.88942 44.466 7.7977C47.6262 6.43304 50.3556 4.63895 55.3832 6.21832C60.4109 7.7977 63.7509 12.6338 59.5391 17.6224" stroke="black" stroke-width="1.5" stroke-linecap="round" stroke-linejoin="round"/>
<path d="M59.19 29.7767C58.0167 29.6327 55.3768 29.5807 53.9979 29.9261C53.9979 29.9261 51.1894 31.1313 49.9253 32.1081" stroke="black" stroke-width="1.5" stroke-linecap="round" stroke-linejoin="round"/>
<path d="M64.0459 30.0202C64.5674 30.0245 65.9294 29.9995 66.4758 30.3001" stroke="black" stroke-width="1.5" stroke-linecap="round" stroke-linejoin="round"/>
<ellipse cx="56.3436" cy="33.6933" rx="1.13301" ry="1.70706" transform="rotate(-10.709 56.3436 33.6933)" fill="black"/>
<path d="M55.7841 15.5796C56.2618 15.2348 57.2506 14.2318 57.3839 12.979C57.5506 11.4129 56.1842 9.11361 51.5851 11.0463C46.986 12.979 41.8205 14.7465 38.921 16.1795C36.6015 17.326 33.5554 20.7231 32.3223 22.2784" stroke="black" stroke-width="1.5" stroke-linecap="round" stroke-linejoin="round"/>
<path d="M53.7189 15.1147C53.8966 14.692 54.0255 13.7401 53.1189 13.3139C51.9857 12.7813 49.7861 16.3139 47.9865 17.8803C46.5467 19.1334 42.8764 21.1353 41.2212 21.9796" stroke="black" stroke-width="1.5" stroke-linecap="round" stroke-linejoin="round"/>
<path d="M48.1857 8.64844C46.4527 9.82603 42.2468 12.3079 39.2874 12.8146C35.5882 13.4479 27.3565 17.8471 24.5237 24.4125M24.757 17.4472C23.7239 18.9691 21.5376 22.7062 21.0577 25.479C20.5778 28.2518 18.6803 30.3003 17.7915 30.9779" stroke="black" stroke-width="1.5" stroke-linecap="round" stroke-linejoin="round"/>
<path d="M28.4231 27.8458C27.5455 29.6564 25.2237 33.7178 22.9575 35.4776M44.1202 23.5469C44.1202 24.0469 44.1202 25.3268 44.1202 26.4463C44.1202 27.8458 40.1876 29.9117 39.5877 32.3446C39.1078 34.2909 39.3878 38.1323 39.5877 39.8098" stroke="black" stroke-width="1.5" stroke-linecap="round" stroke-linejoin="round"/>
<path opacity="0.2" d="M43.2704 56.9949C47.0323 58.2106 56.7028 59.3825 61.0679 59.8164C59.2737 59.8164 58.3428 61.0706 58.1017 61.6978L51.5636 64.4929C51.2896 64.6101 51.0821 64.8433 50.9977 65.1291L47.9771 75.3559C47.7085 76.2651 46.4435 76.3251 46.0901 75.4454L36.5447 51.6825C36.4243 51.3826 36.5741 51.0424 36.8766 50.9288C37.1993 50.8077 37.5543 50.9952 37.6616 51.3228C38.2979 53.2636 39.8868 55.9015 43.2704 56.9949Z" fill="black"/>
<path opacity="0.5" d="M55.33 41.3786C54.8112 42.4502 53.1628 42.7244 51.6483 41.9912C50.1337 41.2579 49.3266 39.7948 49.8454 38.7231C50.5262 37.3169 51.7757 36.6579 53.2902 37.3911C54.8047 38.1244 55.8488 40.307 55.33 41.3786Z" fill="#FED1D0"/>
</g>
</svg>
