<svg viewBox="0 0 704 704" fill="none" xmlns="http://www.w3.org/2000/svg">
<path fill-rule="evenodd" clip-rule="evenodd" d="M352 666C525.417 666 666 525.417 666 352C666 178.583 525.417 38 352 38C178.583 38 38 178.583 38 352C38 525.417 178.583 666 352 666ZM352 668C526.522 668 668 526.522 668 352C668 177.478 526.522 36 352 36C177.478 36 36 177.478 36 352C36 526.522 177.478 668 352 668Z" fill="#111111"/>
<path d="M621.495 353.547L621.295 357.011L601.671 361.627L601.663 361.76L620.622 368.612L620.422 372.076L597.768 363.264L597.976 359.667L621.495 353.547Z" fill="#111111"/>
<path d="M596.036 383.868L618.889 387.416L618.392 390.615L595.54 387.067L596.036 383.868Z" fill="#111111"/>
<path d="M593.274 401.641L615.684 407.35L611.897 422.215L609.098 421.502L612.085 409.774L605.296 408.044L602.694 418.26L599.894 417.547L602.497 407.331L595.274 405.491L592.286 417.219L589.487 416.506L593.274 401.641Z" fill="#111111"/>
<path d="M608.033 437.317L606.718 440.492L586.983 437.205L586.932 437.328L603.204 448.974L601.826 452.302L582.091 449.016L582.04 449.138L598.313 460.784L596.998 463.959L577.925 449.572L579.469 445.845L598.306 448.957L598.357 448.834L582.83 437.731L584.38 433.989L608.033 437.317Z" fill="#111111"/>
<path d="M561.714 481.171L580.805 494.222L575.868 501.444C575.087 502.587 574.344 503.439 573.637 504.002C572.933 504.58 572.142 504.944 571.262 505.093C570.429 505.234 569.564 505.145 568.668 504.828C567.766 504.52 566.867 504.06 565.972 503.447C565.095 502.848 564.351 502.151 563.74 501.358C563.132 500.581 562.746 499.734 562.582 498.817C562.267 497.06 562.747 495.25 564.022 493.386L567.151 488.809L559.887 483.843L561.714 481.171ZM569.549 490.448L565.727 496.04C565.289 496.68 565.145 497.332 565.294 497.997C565.437 498.671 565.823 499.223 566.454 499.654L569.236 501.556C569.875 501.993 570.51 502.153 571.141 502.034C571.772 501.916 572.315 501.523 572.771 500.856L576.594 495.264L569.549 490.448Z" fill="#111111"/>
<path d="M545.067 504.952L562.454 520.201L556.707 526.753C555.911 527.66 555.107 528.368 554.293 528.876C553.472 529.393 552.648 529.694 551.823 529.779C550.997 529.865 550.181 529.738 549.374 529.398C548.576 529.066 547.765 528.539 546.941 527.817C546.176 527.145 545.569 526.436 545.12 525.689C544.672 524.958 544.417 524.174 544.354 523.339C544.312 522.699 544.379 522.051 544.556 521.397C544.734 520.758 545.08 520.061 545.596 519.305L534.416 517.097L536.857 514.313L547.765 516.681L550.271 513.823L542.932 507.386L545.067 504.952ZM552.343 515.64L547.954 520.645C547.385 521.294 547.146 521.96 547.238 522.645C547.33 523.329 547.646 523.908 548.187 524.382L550.109 526.068C550.708 526.594 551.331 526.823 551.978 526.757C552.624 526.692 553.218 526.351 553.758 525.735L558.147 520.73L552.343 515.64Z" fill="#111111"/>
<path d="M533.788 534.998C534.995 536.353 535.947 537.714 536.643 539.079C537.34 540.445 537.74 541.785 537.844 543.1C537.947 544.431 537.726 545.724 537.183 546.978C536.631 548.239 535.703 549.451 534.396 550.614C533.09 551.776 531.783 552.555 530.474 552.949C529.157 553.35 527.848 553.419 526.546 553.155C525.244 552.907 523.955 552.358 522.679 551.507C521.404 550.657 520.163 549.554 518.956 548.198C517.75 546.842 516.798 545.481 516.101 544.116C515.405 542.751 515.009 541.407 514.913 540.084C514.809 538.769 515.03 537.476 515.574 536.207C516.117 534.953 517.042 533.744 518.348 532.582C519.655 531.419 520.966 530.637 522.283 530.236C523.599 529.85 524.908 529.781 526.211 530.029C527.505 530.285 528.79 530.838 530.065 531.688C531.341 532.539 532.582 533.642 533.788 534.998ZM528.749 534.704C528.16 534.043 527.514 533.558 526.811 533.251C526.107 532.959 525.374 532.818 524.613 532.829C523.844 532.847 523.086 533.011 522.339 533.32C521.591 533.645 520.886 534.101 520.225 534.69C519.563 535.279 519.032 535.922 518.631 536.62C518.229 537.333 517.978 538.067 517.879 538.822C517.772 539.584 517.827 540.328 518.043 541.054C518.259 541.796 518.661 542.497 519.25 543.159L523.996 548.491C524.584 549.153 525.231 549.629 525.935 549.921C526.638 550.229 527.374 550.373 528.144 550.355C528.905 550.345 529.659 550.177 530.407 549.852C531.154 549.543 531.859 549.094 532.52 548.505C533.181 547.917 533.713 547.266 534.115 546.552C534.516 545.854 534.771 545.124 534.878 544.362C534.977 543.608 534.918 542.86 534.703 542.118C534.486 541.392 534.084 540.698 533.495 540.037L528.749 534.704Z" fill="#111111"/>
<path d="M502.306 547.044L503.971 549.405L497.893 553.692L509.557 570.229L506.912 572.095L493.583 553.197L502.306 547.044Z" fill="#111111"/>
<path d="M481.354 561.594L492.599 581.802L479.195 589.261L477.79 586.737L488.366 580.852L484.959 574.73L475.747 579.856L474.343 577.332L483.555 572.206L479.93 565.692L469.355 571.577L467.95 569.053L481.354 561.594Z" fill="#111111"/>
<path d="M461.257 585.425C461.971 587.166 462.436 588.811 462.652 590.361C462.869 591.911 462.815 593.327 462.491 594.608C462.16 595.903 461.549 597.039 460.657 598.014C459.755 598.994 458.561 599.788 457.076 600.397C456.052 600.817 455.032 601.055 454.015 601.113C452.992 601.186 452.03 601.071 451.129 600.771C450.223 600.484 449.399 600.021 448.658 599.38C447.921 598.749 447.314 597.939 446.837 596.95L449.832 595.723C450.492 596.923 451.38 597.69 452.497 598.022C453.618 598.364 454.88 598.247 456.283 597.672C457.041 597.362 457.688 596.941 458.224 596.41C458.754 595.894 459.16 595.309 459.442 594.655C459.724 594.001 459.866 593.297 459.868 592.543C459.864 591.803 459.702 591.044 459.383 590.265L456.676 583.66C456.366 582.902 455.942 582.262 455.405 581.741C454.859 581.223 454.241 580.825 453.552 580.545C452.857 580.279 452.127 580.148 451.363 580.15C450.592 580.167 449.833 580.328 449.085 580.635C447.662 581.218 446.64 582.008 446.019 583.004C445.393 584.014 445.306 585.276 445.758 586.789L442.778 588.01C442.428 586.981 442.296 585.959 442.382 584.943C442.473 583.937 442.753 583.002 443.225 582.139C443.686 581.28 444.326 580.492 445.144 579.774C445.952 579.06 446.899 578.481 447.984 578.036C449.408 577.452 450.773 577.192 452.078 577.255C453.378 577.333 454.593 577.702 455.725 578.362C456.847 579.027 457.877 579.95 458.816 581.132C459.755 582.314 460.569 583.745 461.257 585.425Z" fill="#111111"/>
<path d="M435.955 605.046L436.732 607.829L420.326 612.409L419.549 609.626L426.201 607.769L420.76 588.277L423.862 587.411L429.303 606.903L435.955 605.046Z" fill="#111111"/>
<path d="M386.159 602.64L386.561 606.354L382.848 606.756L382.445 603.042L386.159 602.64Z" fill="#111111"/>
<path d="M349.15 621.472L345.687 621.258L341.146 601.616L341.013 601.608L334.088 620.541L330.625 620.327L339.524 597.707L343.12 597.929L349.15 621.472Z" fill="#111111"/>
<path d="M318.725 595.838L315.09 618.676L311.893 618.167L315.528 595.329L318.725 595.838Z" fill="#111111"/>
<path d="M300.915 592.947L295.121 615.335L280.271 611.492L280.994 608.695L292.711 611.728L294.466 604.945L284.26 602.304L284.984 599.507L295.19 602.149L297.058 594.932L285.341 591.9L286.065 589.104L300.915 592.947Z" fill="#111111"/>
<path d="M265.946 607.726L262.771 606.411L266.057 586.676L265.935 586.625L254.289 602.898L250.961 601.519L254.247 581.784L254.124 581.733L242.479 598.006L239.304 596.691L253.691 577.618L257.418 579.162L254.306 597.999L254.429 598.05L265.531 582.523L269.274 584.073L265.946 607.726Z" fill="#111111"/>
<path d="M221.988 561.187L208.867 580.231L201.663 575.267C200.523 574.482 199.674 573.735 199.113 573.027C198.538 572.321 198.177 571.528 198.031 570.648C197.893 569.814 197.985 568.949 198.305 568.055C198.617 567.154 199.08 566.257 199.696 565.364C200.299 564.489 200.998 563.747 201.793 563.139C202.573 562.534 203.421 562.151 204.339 561.99C206.096 561.682 207.905 562.169 209.764 563.45L214.33 566.596L219.322 559.351L221.988 561.187ZM212.682 568.989L207.104 565.145C206.466 564.706 205.814 564.559 205.149 564.706C204.475 564.846 203.921 565.23 203.487 565.859L201.575 568.634C201.136 569.272 200.974 569.907 201.09 570.538C201.206 571.169 201.597 571.714 202.263 572.172L207.84 576.015L212.682 568.989Z" fill="#111111"/>
<path d="M198.385 544.543L183.074 561.874L176.542 556.103C175.638 555.305 174.933 554.498 174.428 553.682C173.914 552.859 173.616 552.035 173.534 551.209C173.451 550.383 173.581 549.567 173.924 548.762C174.258 547.965 174.789 547.156 175.514 546.334C176.188 545.571 176.9 544.967 177.648 544.52C178.381 544.075 179.166 543.823 180.001 543.763C180.641 543.724 181.289 543.793 181.943 543.973C182.581 544.153 183.277 544.502 184.03 545.02L186.28 533.848L189.054 536.299L186.647 547.198L189.496 549.715L195.959 542.4L198.385 544.543ZM187.671 551.781L182.682 547.373C182.035 546.801 181.37 546.56 180.685 546.65C180.001 546.739 179.42 547.053 178.944 547.592L177.251 549.508C176.724 550.106 176.492 550.728 176.555 551.375C176.619 552.021 176.957 552.616 177.571 553.158L182.56 557.566L187.671 551.781Z" fill="#111111"/>
<path d="M168.438 533.231C167.078 534.432 165.714 535.379 164.346 536.071C162.978 536.762 161.636 537.158 160.321 537.257C158.989 537.355 157.698 537.13 156.446 536.582C155.186 536.026 153.978 535.092 152.82 533.782C151.662 532.471 150.889 531.161 150.499 529.851C150.102 528.533 150.038 527.223 150.307 525.922C150.56 524.621 151.114 523.334 151.969 522.062C152.824 520.789 153.932 519.552 155.292 518.351C156.652 517.149 158.016 516.202 159.384 515.51C160.752 514.819 162.097 514.428 163.42 514.337C164.736 514.238 166.027 514.463 167.295 515.012C168.547 515.56 169.752 516.489 170.91 517.799C172.068 519.11 172.845 520.424 173.242 521.743C173.623 523.06 173.687 524.37 173.434 525.671C173.174 526.965 172.616 528.247 171.761 529.52C170.906 530.792 169.798 532.029 168.438 533.231ZM168.75 528.192C169.413 527.606 169.9 526.962 170.21 526.26C170.505 525.557 170.648 524.825 170.64 524.063C170.625 523.294 170.464 522.535 170.157 521.787C169.835 521.038 169.381 520.332 168.795 519.668C168.209 519.005 167.567 518.471 166.871 518.067C166.159 517.662 165.426 517.409 164.671 517.308C163.91 517.198 163.166 517.25 162.439 517.464C161.696 517.676 160.994 518.076 160.33 518.662L154.98 523.389C154.317 523.975 153.838 524.62 153.543 525.323C153.233 526.025 153.086 526.761 153.101 527.53C153.109 528.291 153.274 529.046 153.596 529.795C153.902 530.544 154.349 531.25 154.935 531.913C155.521 532.577 156.17 533.111 156.882 533.515C157.579 533.919 158.308 534.176 159.069 534.286C159.824 534.387 160.572 534.332 161.314 534.119C162.041 533.905 162.736 533.505 163.4 532.919L168.75 528.192Z" fill="#111111"/>
<path d="M156.564 501.818L154.197 503.475L149.933 497.381L133.353 508.985L131.496 506.332L150.443 493.072L156.564 501.818Z" fill="#111111"/>
<path d="M142.071 480.837L121.821 492.007L114.412 478.575L116.941 477.18L122.787 487.777L128.921 484.393L123.83 475.162L126.359 473.767L131.451 482.998L137.978 479.397L132.132 468.8L134.661 467.405L142.071 480.837Z" fill="#111111"/>
<path d="M118.354 460.844C116.61 461.551 114.963 462.01 113.413 462.221C111.862 462.432 110.447 462.372 109.167 462.043C107.872 461.708 106.739 461.093 105.767 460.197C104.79 459.291 104.001 458.095 103.398 456.608C102.982 455.582 102.747 454.561 102.693 453.544C102.624 452.52 102.742 451.559 103.046 450.659C103.336 449.754 103.803 448.932 104.447 448.193C105.08 447.458 105.892 446.854 106.883 446.381L108.099 449.381C106.896 450.036 106.126 450.921 105.79 452.037C105.444 453.157 105.556 454.419 106.126 455.824C106.433 456.583 106.851 457.232 107.38 457.77C107.894 458.302 108.478 458.71 109.131 458.995C109.784 459.279 110.487 459.424 111.241 459.429C111.981 459.427 112.741 459.269 113.521 458.953L120.136 456.27C120.895 455.963 121.536 455.541 122.06 455.007C122.58 454.461 122.981 453.845 123.263 453.157C123.531 452.463 123.665 451.734 123.666 450.97C123.652 450.199 123.493 449.439 123.19 448.691C122.612 447.265 121.826 446.24 120.832 445.616C119.824 444.985 118.563 444.894 117.048 445.341L115.838 442.356C116.868 442.01 117.891 441.882 118.907 441.972C119.912 442.065 120.846 442.35 121.707 442.825C122.564 443.289 123.35 443.932 124.065 444.753C124.776 445.563 125.352 446.512 125.793 447.599C126.371 449.025 126.626 450.391 126.558 451.696C126.476 452.995 126.102 454.21 125.437 455.339C124.769 456.458 123.841 457.485 122.656 458.42C121.47 459.354 120.036 460.162 118.354 460.844Z" fill="#111111"/>
<path d="M98.7703 435.479L95.9851 436.245L91.4676 419.822L94.2528 419.056L96.0845 425.714L115.597 420.347L116.451 423.453L96.9387 428.82L98.7703 435.479Z" fill="#111111"/>
<path d="M101.257 385.445L97.5423 385.833L97.1542 382.118L100.869 381.73L101.257 385.445Z" fill="#111111"/>
<path d="M82.5218 348.391L82.7492 344.928L102.408 340.463L102.417 340.331L83.5108 333.332L83.7382 329.87L106.324 338.857L106.088 342.452L82.5218 348.391Z" fill="#111111"/>
<path d="M108.182 318.453L85.3575 314.73L85.8786 311.535L108.703 315.258L108.182 318.453Z" fill="#111111"/>
<path d="M111.001 300.935L88.6347 295.056L92.5345 280.22L95.3282 280.954L92.2514 292.659L99.0271 294.44L101.707 284.245L104.501 284.979L101.821 295.175L109.03 297.07L112.107 285.365L114.901 286.099L111.001 300.935Z" fill="#111111"/>
<path d="M96.1622 266.028L97.489 262.858L117.211 266.218L117.263 266.095L101.034 254.389L102.425 251.066L122.147 254.426L122.198 254.303L105.969 242.597L107.296 239.427L126.315 253.885L124.757 257.606L105.932 254.424L105.881 254.546L121.366 265.707L119.802 269.444L96.1622 266.028Z" fill="#111111"/>
<path d="M142.861 221.84L123.866 208.65L128.856 201.463C129.645 200.327 130.395 199.48 131.105 198.923C131.813 198.35 132.608 197.992 133.488 197.849C134.323 197.714 135.187 197.809 136.08 198.133C136.98 198.448 137.875 198.914 138.766 199.533C139.639 200.139 140.378 200.841 140.983 201.638C141.585 202.42 141.965 203.27 142.123 204.188C142.424 205.947 141.931 207.754 140.643 209.608L137.48 214.163L144.708 219.181L142.861 221.84ZM135.094 212.505L138.957 206.942C139.399 206.306 139.548 205.654 139.404 204.989C139.267 204.314 138.884 203.758 138.257 203.323L135.489 201.4C134.852 200.959 134.218 200.795 133.587 200.908C132.955 201.022 132.409 201.411 131.948 202.075L128.085 207.638L135.094 212.505Z" fill="#111111"/>
<path d="M159.925 197.791L142.649 182.416L148.444 175.905C149.246 175.004 150.056 174.302 150.873 173.8C151.698 173.29 152.523 172.995 153.35 172.915C154.176 172.836 154.991 172.968 155.795 173.314C156.591 173.651 157.398 174.185 158.217 174.913C158.977 175.59 159.579 176.304 160.023 177.054C160.465 177.788 160.715 178.574 160.771 179.409C160.809 180.05 160.737 180.697 160.555 181.35C160.373 181.988 160.021 182.683 159.5 183.434L170.664 185.724L168.202 188.49L157.312 186.043L154.785 188.883L162.077 195.372L159.925 197.791ZM152.726 187.05L157.152 182.077C157.726 181.433 157.969 180.768 157.883 180.083C157.796 179.398 157.483 178.817 156.946 178.338L155.036 176.639C154.441 176.109 153.82 175.875 153.173 175.936C152.526 175.997 151.93 176.333 151.385 176.945L146.959 181.918L152.726 187.05Z" fill="#111111"/>
<path d="M170.623 168.493C169.426 167.128 168.484 165.761 167.797 164.39C167.111 163.02 166.72 161.677 166.626 160.361C166.533 159.029 166.763 157.738 167.315 156.488C167.876 155.231 168.814 154.026 170.128 152.873C171.443 151.72 172.756 150.951 174.068 150.566C175.387 150.174 176.697 150.115 177.997 150.388C179.297 150.646 180.582 151.205 181.851 152.064C183.121 152.924 184.354 154.036 185.55 155.401C186.747 156.765 187.689 158.133 188.376 159.503C189.062 160.874 189.449 162.22 189.534 163.544C189.629 164.86 189.399 166.15 188.845 167.416C188.293 168.666 187.359 169.868 186.045 171.021C184.73 172.174 183.413 172.946 182.093 173.338C180.774 173.714 179.465 173.774 178.164 173.516C176.871 173.251 175.591 172.689 174.322 171.829C173.052 170.969 171.819 169.857 170.623 168.493ZM175.66 168.823C176.243 169.488 176.886 169.978 177.587 170.29C178.289 170.587 179.021 170.733 179.782 170.728C180.551 170.716 181.31 170.558 182.06 170.254C182.81 169.934 183.518 169.483 184.184 168.899C184.849 168.315 185.385 167.676 185.792 166.981C186.199 166.27 186.455 165.538 186.559 164.784C186.672 164.023 186.622 163.278 186.411 162.551C186.201 161.808 185.804 161.103 185.22 160.438L180.513 155.071C179.93 154.405 179.287 153.924 178.585 153.627C177.883 153.314 177.148 153.164 176.379 153.176C175.618 153.181 174.862 153.344 174.112 153.663C173.362 153.967 172.655 154.411 171.989 154.995C171.324 155.578 170.787 156.226 170.38 156.936C169.973 157.631 169.714 158.359 169.601 159.12C169.497 159.874 169.55 160.623 169.76 161.366C169.971 162.093 170.369 162.79 170.953 163.456L175.66 168.823Z" fill="#111111"/>
<path d="M202.088 156.576L200.441 154.204L206.55 149.961L195.007 133.339L197.666 131.492L210.856 150.488L202.088 156.576Z" fill="#111111"/>
<path d="M223.439 141.868L212.344 121.577L225.803 114.218L227.189 116.752L216.57 122.559L219.931 128.705L229.181 123.648L230.567 126.182L221.317 131.24L224.894 137.78L235.512 131.974L236.898 134.508L223.439 141.868Z" fill="#111111"/>
<path d="M243.297 118.241C242.597 116.494 242.144 114.846 241.939 113.294C241.734 111.743 241.799 110.328 242.133 109.049C242.472 107.756 243.092 106.625 243.991 105.656C244.901 104.683 246.1 103.898 247.59 103.3C248.617 102.888 249.639 102.657 250.657 102.607C251.68 102.542 252.641 102.664 253.539 102.971C254.444 103.264 255.264 103.734 256.001 104.381C256.733 105.017 257.334 105.831 257.804 106.824L254.799 108.029C254.148 106.823 253.266 106.05 252.152 105.71C251.033 105.36 249.77 105.467 248.363 106.031C247.603 106.336 246.953 106.752 246.413 107.278C245.879 107.791 245.469 108.373 245.181 109.024C244.894 109.676 244.747 110.379 244.739 111.133C244.738 111.873 244.894 112.634 245.207 113.414L247.865 120.04C248.17 120.8 248.588 121.443 249.121 121.969C249.664 122.49 250.279 122.893 250.966 123.178C251.659 123.449 252.387 123.586 253.152 123.589C253.923 123.578 254.683 123.423 255.433 123.122C256.861 122.549 257.889 121.767 258.517 120.776C259.151 119.77 259.247 118.509 258.806 116.993L261.795 115.794C262.137 116.825 262.261 117.849 262.168 118.864C262.07 119.869 261.782 120.802 261.304 121.661C260.836 122.517 260.191 123.3 259.367 124.012C258.554 124.72 257.603 125.292 256.514 125.729C255.086 126.301 253.72 126.551 252.415 126.479C251.116 126.392 249.903 126.014 248.776 125.345C247.659 124.672 246.636 123.74 245.706 122.551C244.776 121.362 243.973 119.925 243.297 118.241Z" fill="#111111"/>
<path d="M268.979 98.5914L268.224 95.8033L284.664 91.3481L285.419 94.1362L278.754 95.9426L284.047 115.475L280.938 116.318L275.645 96.785L268.979 98.5914Z" fill="#111111"/>
<path d="M317.615 101.354L317.227 97.639L320.942 97.2509L321.33 100.966L317.615 101.354Z" fill="#111111"/>
<path d="M354.676 82.4588L358.138 82.6862L362.603 102.345L362.736 102.354L369.734 83.4478L373.197 83.6752L364.21 106.261L360.615 106.025L354.676 82.4588Z" fill="#111111"/>
<path d="M386.253 108.272L390.063 85.4623L393.256 85.9957L389.446 108.806L386.253 108.272Z" fill="#111111"/>
<path d="M403.633 111.103L409.597 88.759L424.418 92.7151L423.673 95.5061L411.98 92.3849L410.173 99.1538L420.359 101.872L419.614 104.663L409.428 101.945L407.506 109.147L419.199 112.268L418.454 115.059L403.633 111.103Z" fill="#111111"/>
<path d="M438.646 96.3661L441.811 97.7048L438.377 117.414L438.5 117.466L450.266 101.281L453.584 102.685L450.151 122.394L450.273 122.446L462.04 106.261L465.205 107.6L450.676 126.564L446.961 124.993L450.213 106.18L450.091 106.128L438.872 121.571L435.142 119.993L438.646 96.3661Z" fill="#111111"/>
<path d="M482.902 143.324L496.162 124.377L503.33 129.394C504.463 130.187 505.307 130.94 505.862 131.652C506.433 132.362 506.788 133.158 506.928 134.039C507.059 134.874 506.961 135.738 506.634 136.63C506.316 137.529 505.846 138.422 505.224 139.311C504.615 140.182 503.91 140.918 503.111 141.52C502.326 142.119 501.475 142.496 500.557 142.65C498.797 142.945 496.992 142.445 495.142 141.151L490.599 137.972L485.554 145.18L482.902 143.324ZM492.265 135.591L497.814 139.475C498.449 139.919 499.1 140.071 499.766 139.929C500.442 139.794 500.998 139.413 501.436 138.788L503.369 136.027C503.813 135.392 503.979 134.759 503.867 134.127C503.756 133.495 503.369 132.947 502.707 132.484L497.158 128.6L492.265 135.591Z" fill="#111111"/>
<path d="M505.745 159.509L521.12 142.234L527.63 148.029C528.532 148.831 529.233 149.64 529.736 150.458C530.246 151.282 530.541 152.108 530.621 152.934C530.7 153.761 530.567 154.576 530.222 155.38C529.884 156.176 529.351 156.983 528.623 157.801C527.946 158.562 527.232 159.164 526.482 159.607C525.747 160.05 524.962 160.3 524.127 160.356C523.486 160.393 522.839 160.321 522.185 160.14C521.548 159.957 520.853 159.606 520.102 159.085L517.812 170.248L515.046 167.787L517.493 156.897L514.653 154.369L508.163 161.662L505.745 159.509ZM516.485 152.311L521.458 156.737C522.103 157.311 522.768 157.554 523.453 157.467C524.138 157.38 524.719 157.068 525.197 156.531L526.897 154.621C527.427 154.026 527.661 153.405 527.6 152.757C527.539 152.11 527.202 151.515 526.59 150.97L521.617 146.544L516.485 152.311Z" fill="#111111"/>
<path d="M536.261 171.4C537.63 170.208 539.001 169.271 540.374 168.59C541.747 167.908 543.091 167.522 544.407 167.433C545.739 167.345 547.029 167.579 548.277 168.136C549.533 168.701 550.734 169.644 551.883 170.962C553.031 172.281 553.795 173.597 554.175 174.91C554.562 176.231 554.616 177.541 554.338 178.84C554.076 180.14 553.512 181.422 552.648 182.688C551.784 183.954 550.668 185.183 549.299 186.375C547.93 187.567 546.559 188.504 545.186 189.185C543.813 189.867 542.465 190.248 541.141 190.33C539.825 190.419 538.535 190.185 537.271 189.626C536.023 189.069 534.825 188.132 533.677 186.813C532.529 185.494 531.761 184.174 531.374 182.853C531.002 181.532 530.948 180.223 531.21 178.923C531.48 177.631 532.047 176.353 532.911 175.087C533.775 173.821 534.892 172.592 536.261 171.4ZM535.913 176.436C535.245 177.017 534.753 177.658 534.438 178.358C534.139 179.059 533.99 179.79 533.992 180.551C534.002 181.32 534.157 182.08 534.458 182.831C534.775 183.582 535.224 184.292 535.805 184.959C536.387 185.627 537.024 186.166 537.718 186.574C538.427 186.984 539.158 187.243 539.912 187.35C540.672 187.465 541.417 187.419 542.145 187.21C542.889 187.003 543.595 186.608 544.263 186.027L549.647 181.339C550.315 180.758 550.798 180.117 551.098 179.416C551.413 178.716 551.566 177.981 551.556 177.212C551.554 176.451 551.394 175.694 551.078 174.943C550.777 174.192 550.335 173.483 549.754 172.816C549.173 172.148 548.527 171.609 547.818 171.199C547.125 170.79 546.398 170.528 545.637 170.413C544.883 170.306 544.135 170.356 543.391 170.563C542.662 170.772 541.964 171.167 541.297 171.748L535.913 176.436Z" fill="#111111"/>
<path d="M548.103 202.996L550.482 201.357L554.702 207.481L571.366 195.999L573.203 198.665L554.16 211.786L548.103 202.996Z" fill="#111111"/>
<path d="M562.703 224.395L583.034 213.374L590.344 226.861L587.804 228.237L582.037 217.597L575.878 220.936L580.902 230.204L578.362 231.58L573.338 222.312L566.785 225.864L572.552 236.504L570.013 237.881L562.703 224.395Z" fill="#111111"/>
<path d="M586.295 244.503C588.044 243.809 589.695 243.363 591.247 243.163C592.799 242.964 594.214 243.034 595.491 243.373C596.783 243.717 597.912 244.341 598.877 245.244C599.847 246.157 600.628 247.36 601.219 248.851C601.628 249.88 601.855 250.903 601.901 251.921C601.962 252.944 601.837 253.905 601.526 254.802C601.23 255.706 600.757 256.524 600.108 257.258C599.468 257.988 598.652 258.586 597.658 259.052L596.464 256.043C597.672 255.397 598.449 254.517 598.793 253.404C599.147 252.287 599.045 251.024 598.486 249.615C598.184 248.853 597.77 248.202 597.246 247.66C596.736 247.124 596.155 246.711 595.504 246.422C594.854 246.132 594.151 245.982 593.397 245.972C592.657 245.968 591.896 246.121 591.114 246.431L584.479 249.064C583.718 249.366 583.073 249.782 582.546 250.313C582.022 250.854 581.616 251.467 581.329 252.153C581.056 252.845 580.916 253.573 580.91 254.338C580.918 255.108 581.071 255.869 581.369 256.62C581.936 258.05 582.714 259.081 583.703 259.713C584.706 260.351 585.967 260.452 587.485 260.016L588.673 263.01C587.64 263.348 586.616 263.469 585.601 263.371C584.596 263.27 583.665 262.978 582.807 262.497C581.954 262.026 581.173 261.377 580.464 260.551C579.759 259.736 579.19 258.782 578.758 257.692C578.19 256.262 577.946 254.894 578.023 253.59C578.115 252.291 578.498 251.079 579.171 249.955C579.848 248.841 580.783 247.821 581.976 246.896C583.168 245.97 584.608 245.172 586.295 244.503Z" fill="#111111"/>
<path d="M605.799 270.233L608.59 269.488L612.983 285.945L610.192 286.69L608.411 280.018L588.858 285.237L588.027 282.125L607.58 276.906L605.799 270.233Z" fill="#111111"/>
<path d="M602.86 319.435L606.576 319.061L606.95 322.778L603.234 323.151L602.86 319.435Z" fill="#111111"/>
<path fill-rule="evenodd" clip-rule="evenodd" d="M159.619 352.465L160.319 351.381C200.849 288.59 271.555 247 352 247C432.445 247 503.151 288.59 543.68 351.381L544.38 352.465L543.68 353.55C503.151 416.341 432.445 457.931 352 457.931C271.555 457.931 200.849 416.341 160.319 353.55L159.619 352.465ZM352 249C272.261 249 202.175 290.222 162 352.465C202.175 414.708 272.261 455.931 352 455.931C431.739 455.931 501.824 414.708 542 352.465C501.824 290.222 431.739 249 352 249Z" fill="#111111"/>
<circle cx="352" cy="352" r="84" fill="white"/>
<circle cx="352" cy="352" r="48" fill="#111111"/>
<circle cx="360" cy="334" r="8" fill="white"/>
</svg>
