<svg viewBox="0 0 527 696" fill="none" xmlns="http://www.w3.org/2000/svg">
<path d="M0 695.58H315.992C440.203 695.58 526.653 628.009 526.653 511.748V501.811C526.653 402.443 460.077 363.689 416.354 351.765V333.878C459.083 320.961 522.679 282.207 522.679 185.819V175.882C522.679 67.5706 439.209 0 312.017 0H0V695.58ZM131.167 286.181V119.242H298.106C353.752 119.242 391.512 148.059 391.512 197.743V207.68C391.512 257.365 352.758 286.181 298.106 286.181H131.167ZM131.167 576.338V405.424H300.093C357.727 405.424 395.487 434.241 395.487 485.912V495.849C395.487 547.521 356.733 576.338 300.093 576.338H131.167Z" fill="#111111"/>
</svg>
