<svg viewBox="0 0 32 88" xmlns="http://www.w3.org/2000/svg">
<path d="M9.6051 75.6812L9 78.495C10.5234 78.4735 11.9992 79.0279 13.1349 80.0483C14.1791 81.1023 14.948 82.5138 15 84H17C17.052 82.5138 17.8149 81.1023 18.8591 80.0483C19.9961 79.0261 21.4744 78.4712 23 78.494L22.3949 75.6802C21.5929 75.7636 20.8151 76.0046 20.1056 76.3895C19.3982 76.7626 18.7629 77.2598 18.2298 77.8577C17.7408 78.3912 17.2171 79.0273 17 79.719L17 4L15 4L15 79.719C14.7829 79.0273 14.2612 78.3922 13.7722 77.8587C13.2391 77.2608 12.6038 76.7636 11.8964 76.3905C11.1863 76.0054 10.4078 75.7644 9.6051 75.6812Z" />
</svg>
