<svg viewBox="0 0 9 16" xmlns="http://www.w3.org/2000/svg">
<path d="M3.04198 5.92739C3.54995 6.36804 4.18382 6.8091 4.79803 7.00897L4.77903 9L4.5675 9.08667C3.95037 9.33809 3.33292 9.80453 2.85869 10.2412C2.26083 10.7769 1.7636 11.4151 1.3905 12.1259C1.00538 12.8393 0.764371 13.6215 0.681217 14.428L3.49501 15.0359L3.4977 14.7496C3.54458 13.3213 4.09166 11.9512 5.04833 10.8816C6.10229 9.83246 7.51381 9.05521 9 9.00294V7.00294L8.73857 6.98634C7.34899 6.85899 6.04029 6.11779 5.04833 5.13038C4.02608 3.98801 3.47119 2.50277 3.494 0.969971L0.680206 1.57792L0.718845 1.87886C0.826116 2.57799 1.05272 3.25429 1.38948 3.878C1.76259 4.58873 2.25982 5.227 2.85768 5.76264L3.04198 5.92739Z" />
</svg>
