<svg viewBox="0 0 24 24" xmlns="http://www.w3.org/2000/svg">
<path d="M12.6812 18.3949L15.495 19C15.4735 17.4766 16.0279 16.0008 17.0483 14.8651C18.1023 13.8209 19.5138 13.052 21 13V11C19.5138 10.948 18.1023 10.1851 17.0483 9.1409C16.0261 8.00389 15.4712 6.52561 15.494 5L12.6802 5.6051C12.7636 6.40709 13.0046 7.18495 13.3895 7.89441C13.7626 8.60181 14.2598 9.23707 14.8577 9.7702C15.3912 10.2592 16.0273 10.7829 16.719 11H3V13H16.719C16.0273 13.2171 15.3922 13.7388 14.8587 14.2278C14.2608 14.7609 13.7636 15.3962 13.3905 16.1036C13.0054 16.8137 12.7644 17.5922 12.6812 18.3949Z" />
</svg>
