<svg viewBox="0 0 24 24" xmlns="http://www.w3.org/2000/svg">
<path d="M5.6051 12.6812L5 15.495C6.5234 15.4735 7.99924 16.0279 9.13486 17.0483C10.1791 18.1023 10.948 19.5138 11 21H13C13.052 19.5138 13.8149 18.1023 14.8591 17.0483C15.9961 16.0261 17.4744 15.4712 19 15.494L18.3949 12.6802C17.5929 12.7636 16.8151 13.0046 16.1056 13.3895C15.3982 13.7626 14.7629 14.2598 14.2298 14.8577C13.7408 15.3912 13.2171 16.0273 13 16.719V3H11V16.719C10.7829 16.0273 10.2612 15.3922 9.77222 14.8587C9.23908 14.2608 8.60383 13.7636 7.89642 13.3905C7.18634 13.0054 6.40778 12.7644 5.6051 12.6812Z" />
</svg>
