<svg viewBox="0 0 32 32" xmlns="http://www.w3.org/2000/svg">
<path d="M16.6812 22.3949L19.495 23C19.4735 21.4766 20.0279 20.0008 21.0483 18.8651C22.1023 17.8209 23.5138 17.052 25 17V15C23.5138 14.948 22.1023 14.1851 21.0483 13.1409C20.0261 12.0039 19.4712 10.5256 19.494 9L16.6802 9.6051C16.7636 10.4071 17.0046 11.1849 17.3895 11.8944C17.7626 12.6018 18.2598 13.2371 18.8577 13.7702C19.3912 14.2592 20.0273 14.7829 20.719 15H7V17H20.719C20.0273 17.2171 19.3922 17.7388 18.8587 18.2278C18.2608 18.7609 17.7636 19.3962 17.3905 20.1036C17.0054 20.8137 16.7644 21.5922 16.6812 22.3949Z" />
</svg>
