<svg viewBox="0 0 24 24" xmlns="http://www.w3.org/2000/svg">
<path d="M18.3949 11.3188L19 8.50499C17.4766 8.52654 16.0008 7.97212 14.8651 6.95168C13.8209 5.89771 13.052 4.48619 13 3H11C10.948 4.48619 10.1851 5.89771 9.1409 6.95168C8.00389 7.97392 6.52561 8.52881 5 8.506L5.6051 11.3198C6.40709 11.2364 7.18495 10.9954 7.89441 10.6105C8.60181 10.2374 9.23707 9.74018 9.7702 9.14232C10.2592 8.60882 10.7829 7.97266 11 7.28098V21H13V7.28098C13.2171 7.97266 13.7388 8.60781 14.2278 9.14131C14.7609 9.73917 15.3962 10.2364 16.1036 10.6095C16.8137 10.9946 17.5922 11.2356 18.3949 11.3188Z" />
</svg>
