<svg viewBox="0 0 88 32" xmlns="http://www.w3.org/2000/svg">
<path d="M75.6812 22.3949L78.495 23C78.4735 21.4766 79.0279 20.0008 80.0483 18.8651C81.1023 17.8209 82.5138 17.052 84 17V15C82.5138 14.948 81.1023 14.1851 80.0483 13.1409C79.0261 12.0039 78.4712 10.5256 78.494 9L75.6802 9.6051C75.7636 10.4071 76.0046 11.1849 76.3895 11.8944C76.7626 12.6018 77.2598 13.2371 77.8577 13.7702C78.3912 14.2592 79.0273 14.7829 79.719 15H4V17H79.719C79.0273 17.2171 78.3922 17.7388 77.8587 18.2278C77.2608 18.7609 76.7636 19.3962 76.3905 20.1036C76.0054 20.8137 75.7644 21.5922 75.6812 22.3949Z" />
</svg>
