<svg viewBox="0 0 24 24" xmlns="http://www.w3.org/2000/svg">
<path d="M5 20H19V22H5V20Z" />
<path d="M5.6051 7.68121L5 10.495C6.5234 10.4735 7.99924 11.0279 9.13486 12.0483C10.1791 13.1023 10.948 14.5138 11 16H13C13.052 14.5138 13.8149 13.1023 14.8591 12.0483C15.9961 11.0261 17.4744 10.4712 19 10.494L18.3949 7.68021C17.5929 7.76362 16.8151 8.00461 16.1056 8.38948C15.3982 8.76259 14.7629 9.25982 14.2298 9.85768C13.7408 10.3912 13.2171 11.0273 13 11.719V2H11V11.719C10.7829 11.0273 10.2612 10.3922 9.77222 9.85869C9.23908 9.26083 8.60383 8.76359 7.89642 8.39049C7.18634 8.00537 6.40778 7.76437 5.6051 7.68121Z" />
</svg>
