<svg viewBox="0 0 32 32" xmlns="http://www.w3.org/2000/svg">
<path d="M9 24H23V26H9V24Z" />
<path d="M9.6051 11.6812L9 14.495C10.5234 14.4735 11.9992 15.0279 13.1349 16.0483C14.1791 17.1023 14.948 18.5138 15 20H17C17.052 18.5138 17.8149 17.1023 18.8591 16.0483C19.9961 15.0261 21.4744 14.4712 23 14.494L22.3949 11.6802C21.5929 11.7636 20.8151 12.0046 20.1056 12.3895C19.3982 12.7626 18.7629 13.2598 18.2298 13.8577C17.7408 14.3912 17.2171 15.0273 17 15.719V6H15V15.719C14.7829 15.0273 14.2612 14.3922 13.7722 13.8587C13.2391 13.2608 12.6038 12.7636 11.8964 12.3905C11.1863 12.0054 10.4078 11.7644 9.6051 11.6812Z" />
</svg>
