<svg viewBox="0 0 24 24" xmlns="http://www.w3.org/2000/svg"><path d="M20.3301 4.08648L9.18081 1.09904C7.64143 0.686573 6.05911 1.60011 5.64663 3.1395L2.09904 16.3792C1.68656 17.9187 2.60011 19.501 4.1395 19.9134L15.2888 22.901C16.8282 23.3134 18.4104 22.3998 18.823 20.8605L22.3705 7.62066C22.7829 6.08127 21.8695 4.49896 20.3301 4.08648ZM7.04029 3.51293C7.24654 2.74323 8.03768 2.28646 8.80738 2.49271L19.9567 5.48015C20.7263 5.68638 21.1831 6.47754 20.9768 7.24723L17.4292 20.487C17.2232 21.2568 16.4319 21.7135 15.6623 21.5072L4.51295 18.5198C3.74324 18.3135 3.28647 17.5224 3.49271 16.7528L7.04029 3.51293ZM9.45424 5.65349C9.06938 5.55037 8.67381 5.77876 8.57069 6.1636C8.46758 6.54844 8.69596 6.94403 9.08081 7.04714L17.4428 9.28772C17.8276 9.39085 18.2233 9.16246 18.3263 8.77762C18.4295 8.39276 18.2011 7.99719 17.8163 7.89407L9.45424 5.65349ZM7.63712 9.64775C7.74024 9.26291 8.13582 9.03451 8.52066 9.13764L16.8826 11.3782C17.2674 11.4813 17.4958 11.8769 17.3928 12.2618C17.2896 12.6466 16.8941 12.875 16.5092 12.7719L8.14723 10.5313C7.76239 10.4282 7.53399 10.0326 7.63712 9.64775ZM7.58709 12.6218C7.20224 12.5186 6.80665 12.7471 6.70355 13.1319C6.60042 13.5167 6.82882 13.9123 7.21366 14.0155L12.0915 15.3225C12.4763 15.4256 12.8719 15.1972 12.975 14.8122C13.0781 14.4274 12.8498 14.032 12.4649 13.9288L7.58709 12.6218Z" /></svg>
