<svg viewBox="0 0 24 24" xmlns="http://www.w3.org/2000/svg">
<path d="M2.41938 12.0969V16.355C2.41938 16.5432 2.3446 16.7237 2.21151 16.8568C2.07842 16.9899 1.89791 17.0647 1.70969 17.0647C1.52147 17.0647 1.34095 16.9899 1.20786 16.8568C1.07477 16.7237 1 16.5432 1 16.355V12.0969C1 11.9087 1.07477 11.7281 1.20786 11.5951C1.34095 11.462 1.52147 11.3872 1.70969 11.3872C1.89791 11.3872 2.07842 11.462 2.21151 11.5951C2.3446 11.7281 2.41938 11.9087 2.41938 12.0969ZM4.54844 9.25813C4.36022 9.25813 4.17971 9.3329 4.04661 9.46599C3.91352 9.59908 3.83875 9.77959 3.83875 9.96781V18.4841C3.83875 18.6723 3.91352 18.8528 4.04661 18.9859C4.17971 19.119 4.36022 19.1938 4.54844 19.1938C4.73666 19.1938 4.91717 19.119 5.05026 18.9859C5.18335 18.8528 5.25813 18.6723 5.25813 18.4841V9.96781C5.25813 9.77959 5.18335 9.59908 5.05026 9.46599C4.91717 9.3329 4.73666 9.25813 4.54844 9.25813ZM7.38719 8.54844C7.19897 8.54844 7.01846 8.62321 6.88536 8.7563C6.75227 8.88939 6.6775 9.0699 6.6775 9.25813V18.4841C6.6775 18.6723 6.75227 18.8528 6.88536 18.9859C7.01846 19.119 7.19897 19.1938 7.38719 19.1938C7.57541 19.1938 7.75592 19.119 7.88901 18.9859C8.02211 18.8528 8.09688 18.6723 8.09688 18.4841V9.25813C8.09688 9.0699 8.02211 8.88939 7.88901 8.7563C7.75592 8.62321 7.57541 8.54844 7.38719 8.54844ZM10.2259 5.70969C10.0377 5.70969 9.85721 5.78446 9.72411 5.91755C9.59102 6.05064 9.51625 6.23115 9.51625 6.41938V18.4841C9.51625 18.6723 9.59102 18.8528 9.72411 18.9859C9.85721 19.119 10.0377 19.1938 10.2259 19.1938C10.4142 19.1938 10.5947 19.119 10.7278 18.9859C10.8609 18.8528 10.9356 18.6723 10.9356 18.4841V6.41938C10.9356 6.23115 10.8609 6.05064 10.7278 5.91755C10.5947 5.78446 10.4142 5.70969 10.2259 5.70969ZM20.0587 10.8851C19.7731 9.23733 18.9149 7.74335 17.6353 6.66665C16.3557 5.58994 14.737 4.99969 13.0647 5H12.7098C12.6157 5 12.5255 5.03739 12.4589 5.10393C12.3924 5.17048 12.355 5.26073 12.355 5.35484V18.8389C12.355 18.933 12.3924 19.0233 12.4589 19.0898C12.5255 19.1564 12.6157 19.1938 12.7098 19.1938H18.6721C20.9413 19.1938 22.8655 17.4444 22.9932 15.1787C23.0462 14.2395 22.7872 13.3092 22.2564 12.5326C21.7256 11.756 20.9529 11.1768 20.0587 10.8851Z" />
</svg>
